{
  "accessors": [
    {
      "bufferView": 2,
      "componentType": 5126,
      "count": 24,
      "max": [
        0.1108575165271759,
        0.004859075415879488,
        0.004449689295142889
      ],
      "min": [
        0.10109435021877289,
        -0.004893868695944548,
        -0.005330127198249102
      ],
      "type": "VEC3"
    },
    {
      "bufferView": 2,
      "byteOffset": 288,
      "componentType": 5126,
      "count": 24,
      "max": [
        0.9999876618385315,
        0.9999920129776001,
        0.9999829530715942
      ],
      "min": [
        -0.9999876618385315,
        -0.9999920129776001,
        -0.999983012676239
      ],
      "type": "VEC3"
    },
    {
      "bufferView": 1,
      "componentType": 5126,
      "count": 24,
      "max": [
        0.7499567270278931,
        0.9999133944511414
      ],
      "min": [
        8.658754813950509e-05,
        8.660554885864258e-05
      ],
      "type": "VEC2"
    },
    {
      "bufferView": 0,
      "componentType": 5125,
      "count": 36,
      "type": "SCALAR"
    },
    {
      "bufferView": 2,
      "byteOffset": 576,
      "componentType": 5126,
      "count": 65532,
      "max": [
        0.07133842259645462,
        0.048812590539455414,
        0.0021507979836314917
      ],
      "min": [
        -0.06759054958820343,
        -0.0502464734017849,
        -0.007721275556832552
      ],
      "type": "VEC3"
    },
    {
      "bufferView": 2,
      "byteOffset": 786960,
      "componentType": 5126,
      "count": 65532,
      "max": [
        0.9997367262840271,
        0.9970332384109497,
        0.9999999403953552
      ],
      "min": [
        -0.996554434299469,
        -0.9970336556434631,
        -0.9999997019767761
      ],
      "type": "VEC3"
    },
    {
      "bufferView": 1,
      "byteOffset": 192,
      "componentType": 5126,
      "count": 65532,
      "max": [
        0.9974259734153748,
        0.9979950189590454
      ],
      "min": [
        0.0003760000108741224,
        0.00033402442932128906
      ],
      "type": "VEC2"
    },
    {
      "bufferView": 0,
      "byteOffset": 144,
      "componentType": 5125,
      "count": 303168,
      "type": "SCALAR"
    },
    {
      "bufferView": 2,
      "byteOffset": 1573344,
      "componentType": 5126,
      "count": 65532,
      "max": [
        0.07120423763990402,
        0.04667229577898979,
        0.002259261207655072
      ],
      "min": [
        -0.06584137678146362,
        -0.058799657970666885,
        -0.01195458509027958
      ],
      "type": "VEC3"
    },
    {
      "bufferView": 2,
      "byteOffset": 2359728,
      "componentType": 5126,
      "count": 65532,
      "max": [
        0.9994081854820251,
        0.9159074425697327,
        0.9999999403953552
      ],
      "min": [
        -0.9985464215278625,
        -0.9986026883125305,
        -0.9999997615814209
      ],
      "type": "VEC3"
    },
    {
      "bufferView": 1,
      "byteOffset": 524448,
      "componentType": 5126,
      "count": 65532,
      "max": [
        0.9785150289535522,
        0.9968739748001099
      ],
      "min": [
        0.00030899999546818435,
        0.00032901763916015625
      ],
      "type": "VEC2"
    },
    {
      "bufferView": 0,
      "byteOffset": 1212816,
      "componentType": 5125,
      "count": 301653,
      "type": "SCALAR"
    },
    {
      "bufferView": 2,
      "byteOffset": 3146112,
      "componentType": 5126,
      "count": 65532,
      "max": [
        0.07121051847934723,
        0.04835820943117142,
        0.003263728693127632
      ],
      "min": [
        -0.06740500777959824,
        -0.06001373380422592,
        -0.02038782276213169
      ],
      "type": "VEC3"
    },
    {
      "bufferView": 2,
      "byteOffset": 3932496,
      "componentType": 5126,
      "count": 65532,
      "max": [
        0.9999480247497559,
        0.9947607517242432,
        0.9999998211860657
      ],
      "min": [
        -0.9999176859855652,
        -0.999904990196228,
        -0.9999998807907104
      ],
      "type": "VEC3"
    },
    {
      "bufferView": 1,
      "byteOffset": 1048704,
      "componentType": 5126,
      "count": 65532,
      "max": [
        0.9970589876174927,
        0.9976850152015686
      ],
      "min": [
        0.00030899999546818435,
        0.00035697221755981445
      ],
      "type": "VEC2"
    },
    {
      "bufferView": 0,
      "byteOffset": 2419428,
      "componentType": 5125,
      "count": 247383,
      "type": "SCALAR"
    },
    {
      "bufferView": 2,
      "byteOffset": 4718880,
      "componentType": 5126,
      "count": 65534,
      "max": [
        0.0713731124997139,
        0.04875057935714722,
        0.003263728693127632
      ],
      "min": [
        -0.06758242100477219,
        -0.060438744723796844,
        -0.030137745663523674
      ],
      "type": "VEC3"
    },
    {
      "bufferView": 2,
      "byteOffset": 5505288,
      "componentType": 5126,
      "count": 65534,
      "max": [
        0.9999480247497559,
        0.9947607517242432,
        0.9999998211860657
      ],
      "min": [
        -0.9997851848602295,
        -0.999904990196228,
        -0.9999997615814209
      ],
      "type": "VEC3"
    },
    {
      "bufferView": 1,
      "byteOffset": 1572960,
      "componentType": 5126,
      "count": 65534,
      "max": [
        0.9980930089950562,
        0.9984779953956604
      ],
      "min": [
        0.0003060000017285347,
        0.00030499696731567383
      ],
      "type": "VEC2"
    },
    {
      "bufferView": 0,
      "byteOffset": 3408960,
      "componentType": 5125,
      "count": 140661,
      "type": "SCALAR"
    },
    {
      "bufferView": 2,
      "byteOffset": 6291696,
      "componentType": 5126,
      "count": 65532,
      "max": [
        0.0713731124997139,
        0.048812590539455414,
        0.003263728693127632
      ],
      "min": [
        -0.06759054958820343,
        -0.060438744723796844,
        -0.03340495005249977
      ],
      "type": "VEC3"
    },
    {
      "bufferView": 2,
      "byteOffset": 7078080,
      "componentType": 5126,
      "count": 65532,
      "max": [
        0.999725878238678,
        0.9978336095809937,
        0.9999997019767761
      ],
      "min": [
        -0.9999886751174927,
        -0.9998747706413269,
        -0.9999997615814209
      ],
      "type": "VEC3"
    },
    {
      "bufferView": 1,
      "byteOffset": 2097232,
      "componentType": 5126,
      "count": 65532,
      "max": [
        0.9988219738006592,
        0.9982039928436279
      ],
      "min": [
        0.0003150000120513141,
        0.00030499696731567383
      ],
      "type": "VEC2"
    },
    {
      "bufferView": 0,
      "byteOffset": 3971604,
      "componentType": 5125,
      "count": 92469,
      "type": "SCALAR"
    },
    {
      "bufferView": 2,
      "byteOffset": 7864464,
      "componentType": 5126,
      "count": 3265,
      "max": [
        0.07072225213050842,
        0.04799337685108185,
        0.00276375375688076
      ],
      "min": [
        -0.06714905798435211,
        -0.05710575357079506,
        -0.009946925565600395
      ],
      "type": "VEC3"
    },
    {
      "bufferView": 2,
      "byteOffset": 7903644,
      "componentType": 5126,
      "count": 3265,
      "max": [
        0.9991175532341003,
        0.9809895157814026,
        0.999999463558197
      ],
      "min": [
        -0.9963841438293457,
        -0.970103919506073,
        -0.9999926686286926
      ],
      "type": "VEC3"
    },
    {
      "bufferView": 1,
      "byteOffset": 2621488,
      "componentType": 5126,
      "count": 3265,
      "max": [
        0.9888520240783691,
        0.9965010285377502
      ],
      "min": [
        0.0003769999893847853,
        0.00034999847412109375
      ],
      "type": "VEC2"
    },
    {
      "bufferView": 0,
      "byteOffset": 4341480,
      "componentType": 5125,
      "count": 3474,
      "type": "SCALAR"
    }
  ],
  "asset": {
    "extras": {
      "author": "ffish.asia / floraZia.com (https://sketchfab.com/ffishAsia-and-floraZia)",
      "license": "CC-BY-NC-4.0 (http://creativecommons.org/licenses/by-nc/4.0/)",
      "source": "https://sketchfab.com/3d-models/swallowtail-butterfly-papilio-xuthus-5c9f4b2231ee4d22a023e7445138f9b8",
      "title": "アゲハ 🦋 Swallowtail Butterfly, Papilio xuthus"
    },
    "generator": "Sketchfab-15.59.0",
    "version": "2.0"
  },
  "bufferViews": [
    {
      "buffer": 0,
      "byteLength": 4355376,
      "name": "floatBufferViews",
      "target": 34963
    },
    {
      "buffer": 0,
      "byteLength": 2647608,
      "byteOffset": 4355376,
      "byteStride": 8,
      "name": "floatBufferViews",
      "target": 34962
    },
    {
      "buffer": 0,
      "byteLength": 7942824,
      "byteOffset": 7002984,
      "byteStride": 12,
      "name": "floatBufferViews",
      "target": 34962
    }
  ],
  "buffers": [
    {
      "byteLength": 14945808,
      "uri": "scene.bin"
    }
  ],
  "extensionsUsed": [
    "KHR_materials_unlit"
  ],
  "images": [
    {
      "uri": "textures/Material.001_baseColor.jpeg"
    },
    {
      "uri": "textures/QS1399-W03-1-1_baseColor.jpeg"
    }
  ],
  "materials": [
    {
      "doubleSided": true,
      "extensions": {
        "KHR_materials_unlit": {}
      },
      "name": "Material.001",
      "pbrMetallicRoughness": {
        "baseColorTexture": {
          "index": 0
        },
        "metallicFactor": 0.0
      }
    },
    {
      "doubleSided": true,
      "extensions": {
        "KHR_materials_unlit": {}
      },
      "name": "QS1399-W03-1-1",
      "pbrMetallicRoughness": {
        "baseColorTexture": {
          "index": 1
        },
        "metallicFactor": 0.0
      }
    }
  ],
  "meshes": [
    {
      "name": "Object_0",
      "primitives": [
        {
          "attributes": {
            "NORMAL": 1,
            "POSITION": 0,
            "TEXCOORD_0": 2
          },
          "indices": 3,
          "material": 0,
          "mode": 4
        }
      ]
    },
    {
      "name": "Object_1",
      "primitives": [
        {
          "attributes": {
            "NORMAL": 5,
            "POSITION": 4,
            "TEXCOORD_0": 6
          },
          "indices": 7,
          "material": 1,
          "mode": 4
        }
      ]
    },
    {
      "name": "Object_2",
      "primitives": [
        {
          "attributes": {
            "NORMAL": 9,
            "POSITION": 8,
            "TEXCOORD_0": 10
          },
          "indices": 11,
          "material": 1,
          "mode": 4
        }
      ]
    },
    {
      "name": "Object_3",
      "primitives": [
        {
          "attributes": {
            "NORMAL": 13,
            "POSITION": 12,
            "TEXCOORD_0": 14
          },
          "indices": 15,
          "material": 1,
          "mode": 4
        }
      ]
    },
    {
      "name": "Object_4",
      "primitives": [
        {
          "attributes": {
            "NORMAL": 17,
            "POSITION": 16,
            "TEXCOORD_0": 18
          },
          "indices": 19,
          "material": 1,
          "mode": 4
        }
      ]
    },
    {
      "name": "Object_5",
      "primitives": [
        {
          "attributes": {
            "NORMAL": 21,
            "POSITION": 20,
            "TEXCOORD_0": 22
          },
          "indices": 23,
          "material": 1,
          "mode": 4
        }
      ]
    },
    {
      "name": "Object_6",
      "primitives": [
        {
          "attributes": {
            "NORMAL": 25,
            "POSITION": 24,
            "TEXCOORD_0": 26
          },
          "indices": 27,
          "material": 1,
          "mode": 4
        }
      ]
    }
  ],
  "nodes": [
    {
      "children": [
        1
      ],
      "matrix": [
        1.0,
        0.0,
        0.0,
        0.0,
        0.0,
        2.220446049250313e-16,
        -1.0,
        0.0,
        0.0,
        1.0,
        2.220446049250313e-16,
        0.0,
        0.0,
        0.0,
        0.0,
        1.0
      ],
      "name": "Sketchfab_model"
    },
    {
      "children": [
        2
      ],
      "name": "root"
    },
    {
      "children": [
        3,
        5
      ],
      "matrix": [
        1.0,
        0.0,
        0.0,
        0.0,
        0.0,
        2.220446049250313e-16,
        1.0,
        0.0,
        0.0,
        -1.0,
        2.220446049250313e-16,
        0.0,
        0.0,
        0.0,
        0.0,
        1.0
      ],
      "name": "GLTF_SceneRootNode"
    },
    {
      "children": [
        4
      ],
      "name": "Cube_0"
    },
    {
      "mesh": 0,
      "name": "Object_4"
    },
    {
      "children": [
        6,
        7,
        8,
        9,
        10,
        11
      ],
      "name": "QS1399-W03-1-1_1"
    },
    {
      "mesh": 1,
      "name": "Object_6"
    },
    {
      "mesh": 2,
      "name": "Object_7"
    },
    {
      "mesh": 3,
      "name": "Object_8"
    },
    {
      "mesh": 4,
      "name": "Object_9"
    },
    {
      "mesh": 5,
      "name": "Object_10"
    },
    {
      "mesh": 6,
      "name": "Object_11"
    }
  ],
  "samplers": [
    {
      "magFilter": 9729,
      "minFilter": 9987,
      "wrapS": 10497,
      "wrapT": 10497
    }
  ],
  "scene": 0,
  "scenes": [
    {
      "name": "Sketchfab_Scene",
      "nodes": [
        0
      ]
    }
  ],
  "textures": [
    {
      "sampler": 0,
      "source": 0
    },
    {
      "sampler": 0,
      "source": 1
    }
  ]
}
