{
  "accessors": [
    {
      "bufferView": 2,
      "componentType": 5126,
      "count": 24,
      "max": [
        0.05034415051341057,
        0.004859075415879488,
        0.004593597259372473
      ],
      "min": [
        0.04058098420500755,
        -0.004893868695944548,
        -0.005186219234019518
      ],
      "type": "VEC3"
    },
    {
      "bufferView": 2,
      "byteOffset": 288,
      "componentType": 5126,
      "count": 24,
      "max": [
        0.9999876618385315,
        0.9999920129776001,
        0.999983012676239
      ],
      "min": [
        -0.9999876618385315,
        -0.9999920129776001,
        -0.999983012676239
      ],
      "type": "VEC3"
    },
    {
      "bufferView": 1,
      "componentType": 5126,
      "count": 24,
      "max": [
        0.7499567270278931,
        0.9999133944511414
      ],
      "min": [
        8.658754813950509e-05,
        8.660554885864258e-05
      ],
      "type": "VEC2"
    },
    {
      "bufferView": 0,
      "componentType": 5125,
      "count": 36,
      "type": "SCALAR"
    },
    {
      "bufferView": 2,
      "byteOffset": 576,
      "componentType": 5126,
      "count": 65532,
      "max": [
        0.02414317987859249,
        0.008563518524169922,
        0.011608269065618515
      ],
      "min": [
        -0.015630532056093216,
        -0.013180465437471867,
        -0.011417731642723083
      ],
      "type": "VEC3"
    },
    {
      "bufferView": 2,
      "byteOffset": 786960,
      "componentType": 5126,
      "count": 65532,
      "max": [
        0.9993277788162231,
        0.9998480677604675,
        0.9999982714653015
      ],
      "min": [
        -0.9918088316917419,
        -0.999961256980896,
        -0.9999986886978149
      ],
      "type": "VEC3"
    },
    {
      "bufferView": 1,
      "byteOffset": 192,
      "componentType": 5126,
      "count": 65532,
      "max": [
        0.9996439814567566,
        0.9996479749679565
      ],
      "min": [
        0.0003549999964889139,
        0.000482022762298584
      ],
      "type": "VEC2"
    },
    {
      "bufferView": 0,
      "byteOffset": 144,
      "componentType": 5125,
      "count": 284775,
      "type": "SCALAR"
    },
    {
      "bufferView": 2,
      "byteOffset": 1573344,
      "componentType": 5126,
      "count": 65534,
      "max": [
        0.024098141118884087,
        0.008563518524169922,
        0.012275150045752525
      ],
      "min": [
        -0.01703953742980957,
        -0.013180465437471867,
        -0.011556182987987995
      ],
      "type": "VEC3"
    },
    {
      "bufferView": 2,
      "byteOffset": 2359752,
      "componentType": 5126,
      "count": 65534,
      "max": [
        0.9999891519546509,
        0.999905526638031,
        0.9999849200248718
      ],
      "min": [
        -0.9998983144760132,
        -0.9999523162841797,
        -0.9999942779541016
      ],
      "type": "VEC3"
    },
    {
      "bufferView": 1,
      "byteOffset": 524448,
      "componentType": 5126,
      "count": 65534,
      "max": [
        0.9996399879455566,
        0.9991090297698975
      ],
      "min": [
        0.00035600000410340726,
        0.00035697221755981445
      ],
      "type": "VEC2"
    },
    {
      "bufferView": 0,
      "byteOffset": 1139244,
      "componentType": 5125,
      "count": 167514,
      "type": "SCALAR"
    },
    {
      "bufferView": 2,
      "byteOffset": 3146160,
      "componentType": 5126,
      "count": 19448,
      "max": [
        0.02414317987859249,
        0.008563518524169922,
        0.012275150045752525
      ],
      "min": [
        -0.01710020750761032,
        -0.013151311315596104,
        -0.011674817651510239
      ],
      "type": "VEC3"
    },
    {
      "bufferView": 2,
      "byteOffset": 3379536,
      "componentType": 5126,
      "count": 19448,
      "max": [
        0.9999891519546509,
        0.999905526638031,
        0.9999982714653015
      ],
      "min": [
        -0.9997609853744507,
        -0.999961256980896,
        -0.99998939037323
      ],
      "type": "VEC3"
    },
    {
      "bufferView": 1,
      "byteOffset": 1048720,
      "componentType": 5126,
      "count": 19448,
      "max": [
        0.9985129833221436,
        0.9981279969215393
      ],
      "min": [
        0.0003539999888744205,
        0.0003579854965209961
      ],
      "type": "VEC2"
    },
    {
      "bufferView": 0,
      "byteOffset": 1809300,
      "componentType": 5125,
      "count": 27732,
      "type": "SCALAR"
    }
  ],
  "asset": {
    "extras": {
      "author": "ffish.asia / floraZia.com (https://sketchfab.com/ffishAsia-and-floraZia)",
      "license": "CC-BY-NC-4.0 (http://creativecommons.org/licenses/by-nc/4.0/)",
      "source": "https://sketchfab.com/3d-models/band-winged-grasshopper-7e243400e721459d9717064b09fb51d2",
      "title": "クルマバッタ 🦗 ♂ Band-winged Grasshopper"
    },
    "generator": "Sketchfab-15.68.0",
    "version": "2.0"
  },
  "bufferViews": [
    {
      "buffer": 0,
      "byteLength": 1920228,
      "name": "floatBufferViews",
      "target": 34963
    },
    {
      "buffer": 0,
      "byteLength": 1204304,
      "byteOffset": 1920228,
      "byteStride": 8,
      "name": "floatBufferViews",
      "target": 34962
    },
    {
      "buffer": 0,
      "byteLength": 3612912,
      "byteOffset": 3124532,
      "byteStride": 12,
      "name": "floatBufferViews",
      "target": 34962
    }
  ],
  "buffers": [
    {
      "byteLength": 6737444,
      "uri": "scene.bin"
    }
  ],
  "extensionsUsed": [
    "KHR_materials_unlit"
  ],
  "images": [
    {
      "uri": "textures/Material.001_baseColor.jpeg"
    },
    {
      "uri": "textures/QS1465-W04-1-1.001_baseColor.jpeg"
    }
  ],
  "materials": [
    {
      "doubleSided": true,
      "extensions": {
        "KHR_materials_unlit": {}
      },
      "name": "Material.001",
      "pbrMetallicRoughness": {
        "baseColorTexture": {
          "index": 0
        },
        "metallicFactor": 0.0
      }
    },
    {
      "doubleSided": true,
      "extensions": {
        "KHR_materials_unlit": {}
      },
      "name": "QS1465-W04-1-1.001",
      "pbrMetallicRoughness": {
        "baseColorTexture": {
          "index": 1
        },
        "metallicFactor": 0.0
      }
    }
  ],
  "meshes": [
    {
      "name": "Object_0",
      "primitives": [
        {
          "attributes": {
            "NORMAL": 1,
            "POSITION": 0,
            "TEXCOORD_0": 2
          },
          "indices": 3,
          "material": 0,
          "mode": 4
        }
      ]
    },
    {
      "name": "Object_1",
      "primitives": [
        {
          "attributes": {
            "NORMAL": 5,
            "POSITION": 4,
            "TEXCOORD_0": 6
          },
          "indices": 7,
          "material": 1,
          "mode": 4
        }
      ]
    },
    {
      "name": "Object_2",
      "primitives": [
        {
          "attributes": {
            "NORMAL": 9,
            "POSITION": 8,
            "TEXCOORD_0": 10
          },
          "indices": 11,
          "material": 1,
          "mode": 4
        }
      ]
    },
    {
      "name": "Object_3",
      "primitives": [
        {
          "attributes": {
            "NORMAL": 13,
            "POSITION": 12,
            "TEXCOORD_0": 14
          },
          "indices": 15,
          "material": 1,
          "mode": 4
        }
      ]
    }
  ],
  "nodes": [
    {
      "children": [
        1
      ],
      "matrix": [
        1.0,
        0.0,
        0.0,
        0.0,
        0.0,
        2.220446049250313e-16,
        -1.0,
        0.0,
        0.0,
        1.0,
        2.220446049250313e-16,
        0.0,
        0.0,
        0.0,
        0.0,
        1.0
      ],
      "name": "Sketchfab_model"
    },
    {
      "children": [
        2
      ],
      "name": "root"
    },
    {
      "children": [
        3,
        5
      ],
      "matrix": [
        1.0,
        0.0,
        0.0,
        0.0,
        0.0,
        2.220446049250313e-16,
        1.0,
        0.0,
        0.0,
        -1.0,
        2.220446049250313e-16,
        0.0,
        0.0,
        0.0,
        0.0,
        1.0
      ],
      "name": "GLTF_SceneRootNode"
    },
    {
      "children": [
        4
      ],
      "name": "Cube_0"
    },
    {
      "mesh": 0,
      "name": "Object_4"
    },
    {
      "children": [
        6,
        7,
        8
      ],
      "name": "QS1465-W04-1-1.001_1"
    },
    {
      "mesh": 1,
      "name": "Object_6"
    },
    {
      "mesh": 2,
      "name": "Object_7"
    },
    {
      "mesh": 3,
      "name": "Object_8"
    }
  ],
  "samplers": [
    {
      "magFilter": 9729,
      "minFilter": 9987,
      "wrapS": 10497,
      "wrapT": 10497
    }
  ],
  "scene": 0,
  "scenes": [
    {
      "name": "Sketchfab_Scene",
      "nodes": [
        0
      ]
    }
  ],
  "textures": [
    {
      "sampler": 0,
      "source": 0
    },
    {
      "sampler": 0,
      "source": 1
    }
  ]
}
